<?xml version="1.0"?>
<svg
  xmlns="http://www.w3.org/2000/svg"
  style="fill-rule: evenodd"
  viewBox="0 0 1000 1000"
>
  <rect fill="#f0f0f0" width="1000" height="1000" />
  <path
    transform="scale(0.3)"
    transform-origin="center"
    d="M891 947c0 29-24 53-53 53H301c-29 0-53-24-53-53V563c0-30-24-54-53-54h-32c-30 0-54-24-54-53V53c0-29 24-53 54-53h675c29 0 53 24 53 53v894Zm-216-31h120c8 0 16-7 16-16v-26c0-9-8-16-17-16h-29v-8h30c12 0 23 11 23 24v26c0 13-11 23-24 24H675l20 13-4 7-31-21-2-2c0-2 0-3 2-4l31-21 4 6-20 14Zm70-141a128 128 0 0 1-59 15c-35 0-62-12-81-37-19-24-29-59-29-103s10-79 29-104c19-24 46-37 81-37 20 0 41 5 59 15v38a87 87 0 0 0-60-23c-23 0-41 9-53 28-12 18-18 46-18 83s6 64 18 83c12 18 30 27 54 27a90 90 0 0 0 59-22v37Zm-375-58h64v73h-64v-73ZM254 294V128h37v183l1 28c0 6 2 10 4 13 3 7 9 13 16 16 10 4 21 6 32 6 10 0 24-2 31-6 8-3 13-9 17-16 2-3 3-7 4-13l1-28V128h37v166c0 28-2 48-5 59-4 11-10 21-18 29-8 7-18 13-28 16-13 4-26 6-39 5-13 0-29-1-40-5-10-3-19-9-27-16-9-8-15-18-18-29-3-12-5-31-5-59Zm297-166h207v30h-85v240h-37V158h-85v-30Z"
    fill="#cccccc"
  />
</svg>
